<svg fill="none" height="25" viewBox="0 0 25 25" width="25" xmlns="http://www.w3.org/2000/svg" xmlns:xlink="http://www.w3.org/1999/xlink"><clipPath id="a"><path d="m0 0h25v25h-25z"/></clipPath><g clip-path="url(#a)"><path d="m23.7548 19.4296c-.1071-.2923-.2871-.5818-.5423-.8246-.2724-.258-.6342-.5341-1.0551-.8317-.6284-.4433-1.3787-.9184-2.0501-1.3116-.3356-.1967-.6512-.3723-.925-.5137-.2781-.1424-.4976-.2481-.7132-.3195-.18-.0591-.3652-.0853-.5451-.0853-.5428.0038-1.0255.2204-1.4298.5318-.4023.3157-.7356.7404-.9284 1.2517-.0242.0652-.0476.1156-.069.1575-.5828-.3756-2.0173-1.4406-4.1278-3.9449-1.44971-1.7206-2.28575-3.0142-2.75474-3.86166-.21328-.38658-.34805-.67559-.43325-.87505.04526-.01426.09907-.02857.16811-.04141.58604-.11377 1.09883-.40757 1.49307-.80181.19661-.19853.36411-.4247.48751-.67934.1223-.25425.2018-.54038.2018-.84605 0-.08183-.0057-.16376-.0175-.24658-.0224-.15141-.06-.30044-.1095-.4771-.1733-.60893-.50899-1.51635-.88463-2.41191-.18755-.44707-.38467-.88745-.57656-1.28023-.19282-.39375-.37563-.73559-.55796-1.00883-.26182-.392289-.62798-.659867-.99551-.809379-.36899-.151367-.73886-.19951155-1.07407-.199951-.31235 0-.59751.0418945-.8418.100928-.12236.029492-.23427.063769-.33706.101904-.1038.039014-.19619.079004-.29609.138477l.00142-.000928s-.00142.000928-.00191.001416l-.02524-.041895.00669.052344c-.03716.021436-.11807.067139-.21709.12666-.43848.26377-1.29644.826514-2.06436 1.756304-.76699.92602-1.44448 2.25244-1.44209 3.94877 0 .36182.03047.73985.09571 1.13267.71323 4.28675 2.73046 7.82855 5.03046 10.55795 2.3 2.729 5.44849 5.319 9.55289 6.7483.7556.2628 1.4783.3771 2.1511.3771 1.6177-.0005 2.9113-.6528 3.8078-1.3155.4504-.3324.8065-.6699 1.0669-.9432.13-.1366.2362-.2571.3166-.3514.079-.0923.1395-.167.1505-.1794.0947-.1119.1604-.219.2299-.3471.1981-.3785.3971-.9237.4019-1.5735-.0001-.2737-.0396-.5674-.1472-.8603zm-21.19411-13.24557c.00049-.74746.16475-1.37925.41758-1.92822.37754-.82124.96646-1.45449 1.49639-1.89629.26426-.2209.51181-.39277.70654-.51753.09712-.0624.1814-.11235.24854-.15185.06757-.03955.11328-.0648.16045-.09287.00996-.00713.12089-.05186.25468-.08145.13667-.03091.30518-.05376.4709-.05327.19092-.00098.37466.02998.51602.08945.14336.06094.2457.13618.33901.27285.13379.19761.33135.56514.53418.99268.30664.64463.6375 1.43779.89697 2.1291.1295.34517.2419.66563.32378.92559.08233.25615.13428.46797.14092.52417l.00239.03759c.00049.04854-.01328.12095-.05615.20996-.06284.13282-.1938.29376-.36514.42129-.17094.12857-.37758.22286-.57182.25904-.25996.04951-.48277.12236-.67559.22041-.28852.14424-.50757.35854-.62895.57944-.12378.2209-.14898.42568-.14854.54658l.00381.08282.02285.12187c.03286.12046.59321 2.03721 3.60119 5.60651 3.008 3.5694 4.802 4.4463 4.9153 4.4992l.1238.0452c.0495.0129.1338.03.248.03.1999.0039.5023-.0667.7642-.2761.2642-.2075.4761-.519.6337-.9407.0833-.2272.2576-.4562.4575-.6104.199-.1581.4147-.2266.5309-.2228l.0928.0128c.0348.011.141.0538.2724.1176.4713.2248 1.2955.6985 2.0724 1.195.39.2486.7709.5042 1.0955.7385.3242.2328.5956.4494.7465.5937.089.0857.1404.1704.1785.2718.0377.101.0572.2205.0572.3542.0009.2095-.0519.449-.1228.6423-.0348.0962-.0739.1809-.1062.2419l-.041.0704-.0086.0124c-.0433.051-.0847.1029-.1537.1838-.2338.2752-.7265.8103-1.4264 1.2664-.7009.4575-1.5892.8299-2.6524.8304-.509-.0005-1.0621-.0848-1.6701-.2962-3.8007-1.3226-6.74258-3.7312-8.91499-6.3093-2.17246-2.5785-4.04687-5.8855-4.70674-9.85519-.05239-.31578-.07578-.61236-.07578-.89278z" fill="#4b4b4b"/></g></svg>