<svg fill="none" height="52" viewBox="0 0 52 52" width="52" xmlns="http://www.w3.org/2000/svg"><g fill="#008547"><path d="m25.025 19.9875h6.175c.975 0 1.8688-.8125 1.8688-1.8688 0-1.0562-.8125-1.8687-1.8688-1.8687h-6.175c-2.8437 0-5.2 2.3562-5.2 5.2v1.3c0 2.8438 2.3563 5.2 5.2 5.2h2.8438c.8125 0 1.5437.65 1.5437 1.5437v1.3813c0 .8125-.65 1.5438-1.5437 1.5438h-5.7688c-.975 0-1.8687.8125-1.8687 1.8687 0 1.0563.8125 1.8687 1.8687 1.8687h5.7688c2.8437 0 5.2-2.3562 5.2-5.2v-1.3c0-2.8437-2.275-5.1999-5.2-5.1999h-2.8438c-.8125 0-1.5437-.65-1.5437-1.5438v-1.3c.0812-.8937.7312-1.625 1.5437-1.625z"/><path d="m14.1375 16.6562c-.65-.8125-1.7875-.8937-2.6-.2437l-9.18124 7.475c-.56875.4875-.975 1.2187-.975 2.0312s.325 1.4625.975 1.95l9.26254 7.475c.325.2438.7312.4063 1.1375.4063.5687 0 1.0562-.2438 1.3812-.65.65-.8125.4875-1.95-.2437-2.6l-8.20629-6.6625 8.20629-6.6625c.8125-.5688.8937-1.7875.2437-2.5188z"/><path d="m49.6438 23.8875-9.2625-7.475c-.8125-.65-1.95-.4875-2.6.2437-.65.8125-.4875 1.95.2437 2.6l8.2063 6.5813-8.2063 6.6625c-.8125.65-.8937 1.7875-.2437 2.6.325.4875.8937.65 1.4625.65.4062 0 .8125-.1625 1.1375-.4063l9.2625-7.475c.65-.4875.975-1.2187.975-2.0312s-.4063-1.4625-.975-1.95z"/></g></svg>