<svg fill="none" height="26" viewBox="0 0 114 26" width="114" xmlns="http://www.w3.org/2000/svg"><path d="m15.156 16.226c.2053 0 .3873.0793.546.238l1.484 1.61c-.8213 1.0173-1.834 1.7967-3.038 2.338-1.1947.5413-2.632.812-4.312.812-1.50267 0-2.856-.2567-4.06-.77-1.19467-.5133-2.21667-1.2273-3.066-2.142s-1.50267-2.0067-1.96-3.276c-.448-1.2693-.6719999-2.6553-.6719999-4.158 0-1.52133.2426669-2.912.7279999-4.172.48533-1.26933 1.16667-2.36133 2.044-3.276.88667-.91467 1.94133-1.624 3.164-2.128 1.22267-.513334 2.576-.77 4.06-.77 1.4747 0 2.7813.242666 3.92.728 1.148.48533 2.1233 1.12 2.926 1.904l-1.26 1.75c-.0747.112-.1727.21-.294.294-.112.084-.2707.126-.476.126-.14 0-.2847-.03733-.434-.112-.1493-.084-.3127-.182-.49-.294-.1773-.12133-.3827-.252-.616-.392s-.504-.266-.812-.378c-.308-.12133-.6673-.21933-1.078-.294-.4013-.084-.868-.126-1.4-.126-.90533 0-1.736.16333-2.492.49-.74667.31733-1.39067.784-1.932 1.4-.54133.60667-.96133 1.35333-1.26 2.24-.29867.87733-.448 1.88067-.448 3.01 0 1.1387.15867 2.1513.476 3.038.32667.8867.76533 1.6333 1.316 2.24s1.19933 1.0733 1.946 1.4c.74667.3173 1.54933.476 2.408.476.5133 0 .9753-.028 1.386-.084.42-.056.8027-.1447 1.148-.266.3547-.1213.686-.2753.994-.462.3173-.196.63-.434.938-.714.0933-.084.1913-.1493.294-.196.1027-.056.21-.084.322-.084zm10.1189-9.814c1.064 0 2.03.17267 2.898.518.8774.34533 1.624.83533 2.24 1.47.6254.63467 1.106 1.40933 1.442 2.324.336.9147.504 1.9367.504 3.066 0 1.1387-.168 2.1653-.504 3.08s-.8166 1.694-1.442 2.338c-.616.644-1.3626 1.1387-2.24 1.484-.868.3453-1.834.518-2.898.518-1.0733 0-2.0486-.1727-2.926-.518-.8773-.3453-1.6286-.84-2.254-1.484-.616-.644-1.0966-1.4233-1.442-2.338-.336-.9147-.504-1.9413-.504-3.08 0-1.1293.168-2.1513.504-3.066.3454-.91467.826-1.68933 1.442-2.324.6254-.63467 1.3767-1.12467 2.254-1.47.8774-.34533 1.8527-.518 2.926-.518zm0 12.138c1.1947 0 2.0767-.4013 2.646-1.204.5787-.8027.868-1.9787.868-3.528s-.2893-2.73-.868-3.542c-.5693-.812-1.4513-1.218-2.646-1.218-1.2133 0-2.114.41067-2.702 1.232-.5786.812-.868 1.988-.868 3.528s.2894 2.716.868 3.528c.588.8027 1.4887 1.204 2.702 1.204zm12.9842-9.422c.448-.85867.98-1.53067 1.596-2.016.616-.49467 1.344-.742 2.184-.742.6626 0 1.1946.14467 1.596.434l-.224 2.59c-.0467.168-.1167.28933-.21.364-.084.06533-.2007.098-.35.098-.14 0-.35-.02333-.63-.07-.2707-.04667-.5367-.07-.798-.07-.3827 0-.7234.056-1.022.168-.2987.112-.5694.2753-.812.49-.2334.2053-.4434.4573-.63.756-.1774.2987-.3454.6393-.504 1.022v8.848h-3.458v-14.364h2.03c.3546 0 .602.06533.742.196.14.12133.2333.34533.28.672zm16.0271 3.038c0-.448-.0653-.868-.196-1.26-.1213-.4013-.308-.7513-.56-1.05-.252-.29867-.574-.532-.966-.7-.3826-.17733-.8306-.266-1.344-.266-.9986 0-1.7873.28467-2.366.854-.5693.5693-.9333 1.3767-1.092 2.422zm-6.594 2.086c.056.7373.1867 1.3767.392 1.918.2054.532.476.9753.812 1.33.336.3453.7327.6067 1.19.784.4667.168.98.252 1.54.252s1.0407-.0653 1.442-.196c.4107-.1307.7654-.2753 1.064-.434.308-.1587.574-.3033.798-.434.2334-.1307.4574-.196.672-.196.2894 0 .504.1073.644.322l.994 1.26c-.3826.448-.812.826-1.288 1.134-.476.2987-.9753.5413-1.498.728-.5133.1773-1.0406.3033-1.582.378-.532.0747-1.05.112-1.554.112-.9986 0-1.9273-.1633-2.786-.49-.8586-.336-1.6053-.826-2.24-1.47-.6346-.6533-1.134-1.456-1.498-2.408-.364-.9613-.546-2.072-.546-3.332 0-.98.1587-1.8993.476-2.758.3174-.868.77-1.61933 1.358-2.254.5974-.644 1.3207-1.15267 2.17-1.526.8587-.37333 1.8247-.56 2.898-.56.9054 0 1.7407.14467 2.506.434.7654.28933 1.4234.714 1.974 1.274.5507.55067.98 1.232 1.288 2.044.3174.8027.476 1.722.476 2.758 0 .5227-.056.8773-.168 1.064-.112.1773-.3266.266-.644.266zm23.8385-10.402h-6.104v17.15h-3.766v-17.15h-6.104v-3.094001h15.974zm7.9938 8.316c0-.448-.0653-.868-.196-1.26-.1213-.4013-.308-.7513-.56-1.05-.252-.29867-.574-.532-.966-.7-.3827-.17733-.8307-.266-1.344-.266-.9987 0-1.7873.28467-2.366.854-.5693.5693-.9333 1.3767-1.092 2.422zm-6.594 2.086c.056.7373.1867 1.3767.392 1.918.2053.532.476.9753.812 1.33.336.3453.7327.6067 1.19.784.4667.168.98.252 1.54.252s1.0407-.0653 1.442-.196c.4107-.1307.7653-.2753 1.064-.434.308-.1587.574-.3033.798-.434.2333-.1307.4573-.196.672-.196.2893 0 .504.1073.644.322l.994 1.26c-.3827.448-.812.826-1.288 1.134-.476.2987-.9753.5413-1.498.728-.5133.1773-1.0407.3033-1.582.378-.532.0747-1.05.112-1.554.112-.9987 0-1.9273-.1633-2.786-.49-.8587-.336-1.6053-.826-2.24-1.47-.6347-.6533-1.134-1.456-1.498-2.408-.364-.9613-.546-2.072-.546-3.332 0-.98.1587-1.8993.476-2.758.3173-.868.77-1.61933 1.358-2.254.5973-.644 1.3207-1.15267 2.17-1.526.8587-.37333 1.8247-.56 2.898-.56.9053 0 1.7407.14467 2.506.434s1.4233.714 1.974 1.274c.5507.55067.98 1.232 1.288 2.044.3173.8027.476 1.722.476 2.758 0 .5227-.056.8773-.168 1.064-.112.1773-.3267.266-.644.266zm21.313-3.948c-.3826-.476-.8073-.812-1.274-1.008-.4666-.196-.966-.294-1.498-.294-.5226 0-.994.098-1.414.294s-.7793.49467-1.078.896c-.2986.392-.5273.896-.686 1.512-.1586.6067-.238 1.3253-.238 2.156 0 .84.0654 1.554.196 2.142.14.5787.336 1.0547.588 1.428.252.364.56.63.924.798.364.1587.77.238 1.218.238.7187 0 1.33-.1493 1.834-.448s.98-.7233 1.428-1.274zm3.458-3.668v19.054h-3.458v-6.51c-.5693.6067-1.2133 1.0967-1.932 1.47-.7186.3733-1.554.56-2.506.56-.784 0-1.5026-.1633-2.156-.49-.6533-.3267-1.218-.798-1.694-1.414-.4666-.6253-.8306-1.3953-1.092-2.31-.252-.9147-.378-1.96-.378-3.136 0-1.064.1447-2.0533.434-2.968.2894-.91467.7047-1.708 1.246-2.38.5414-.672 1.19-1.19467 1.946-1.568.756-.38267 1.6054-.574 2.548-.574.896 0 1.6474.154 2.254.462.6067.308 1.148.72333 1.624 1.246l.182-.812c.1214-.42.4107-.63.868-.63zm15.7885 0v14.364h-2.114c-.457 0-.746-.21-.868-.63l-.238-1.148c-.588.5973-1.236 1.0827-1.946 1.456-.709.364-1.544.546-2.506.546-.784 0-1.479-.1307-2.086-.392-.597-.2707-1.101-.6487-1.512-1.134-.41-.4853-.723-1.0593-.938-1.722-.205-.672-.308-1.4093-.308-2.212v-9.128h3.458v9.128c0 .8773.201 1.5587.602 2.044.411.476 1.022.714 1.834.714.598 0 1.158-.1307 1.68-.392.523-.2707 1.018-.6393 1.484-1.106v-10.388z" fill="#333"/></svg>